<svg xmlns="http://www.w3.org/2000/svg" width="1200" height="630" viewBox="0 0 1200 630" role="img" aria-labelledby="title desc">
  <title id="title">Mason Cao social preview</title>
  <desc id="desc">Mason Cao, accomplished AI systems builder and environmental data tool developer.</desc>
  <defs>
    <radialGradient id="glow" cx="50%" cy="45%" r="65%">
      <stop offset="0%" stop-color="#143e52"/>
      <stop offset="52%" stop-color="#071927"/>
      <stop offset="100%" stop-color="#06090f"/>
    </radialGradient>
    <filter id="softGlow" x="-50%" y="-50%" width="200%" height="200%">
      <feGaussianBlur stdDeviation="8" result="blur"/>
      <feMerge>
        <feMergeNode in="blur"/>
        <feMergeNode in="SourceGraphic"/>
      </feMerge>
    </filter>
  </defs>
  <rect width="1200" height="630" fill="url(#glow)"/>
  <g opacity="0.28" stroke="#38d0ff" fill="none">
    <circle cx="840" cy="315" r="108"/>
    <circle cx="840" cy="315" r="176"/>
    <circle cx="840" cy="315" r="248"/>
    <path d="M120 126H1080M120 504H1080M204 72V558M996 72V558" stroke-width="1"/>
  </g>
  <g filter="url(#softGlow)">
    <text x="96" y="172" fill="#8fe6ff" font-family="JetBrains Mono, Menlo, monospace" font-size="25" font-weight="700" letter-spacing="7">MASON CAO</text>
    <text x="96" y="282" fill="#eef2f8" font-family="Space Grotesk, Chivo, Arial, sans-serif" font-size="72" font-weight="800">Accomplished AI</text>
    <text x="96" y="362" fill="#eef2f8" font-family="Space Grotesk, Chivo, Arial, sans-serif" font-size="72" font-weight="800">Systems Builder</text>
    <text x="96" y="438" fill="#b8d7ed" font-family="Chivo, Arial, sans-serif" font-size="28" font-weight="500">AI systems. Environmental data tools. Productivity apps.</text>
    <text x="96" y="486" fill="#8fe6ff" font-family="JetBrains Mono, Menlo, monospace" font-size="20" font-weight="700" letter-spacing="3">LAMBERT HIGH SCHOOL / MEASURABLE RESULTS</text>
  </g>
  <g transform="translate(840 315)" filter="url(#softGlow)">
    <circle r="6" fill="#38d0ff"/>
    <circle r="78" stroke="#8fe6ff" stroke-width="2" fill="none" opacity="0.85"/>
    <circle r="118" stroke="#38d0ff" stroke-width="1" fill="none" opacity="0.48"/>
    <path d="M-112 -32C-72 -92 64 -92 112 -18M-96 46C-36 112 62 96 104 30" stroke="#8fe6ff" stroke-width="3" fill="none" opacity="0.68"/>
  </g>
</svg>
